<?xml version="1.0" encoding="UTF-8"?>
<svg width="30px" height="35px" viewBox="0 0 30 35" version="1.1" xmlns="http://www.w3.org/2000/svg" xmlns:xlink="http://www.w3.org/1999/xlink">
    <!-- Generator: Sketch 49.2 (51160) - http://www.bohemiancoding.com/sketch -->
    <title>shoppingBag</title>
    <desc>Created with Sketch.</desc>
    <defs></defs>
    <g id="Welcome" stroke="none" stroke-width="1" fill="none" fill-rule="evenodd">
        <g id="Product-Detail-Page" transform="translate(-1358.000000, -30.000000)" fill="#600000" fill-rule="nonzero">
            <g id="Filled-Shopping-Bag" transform="translate(1358.000000, 30.000000)">
                <g id="shoppingBag">
                    <path d="M19.8240347,4.31175743 C19.4733416,1.85378713 17.3338366,0 14.8476238,0 C13.2487129,0 11.730198,0.771559406 10.7860644,2.06465347 C10.5932178,2.32836634 10.6509158,2.69829208 10.9146287,2.89113861 C11.1774752,3.08329208 11.5482673,3.02628713 11.7407673,2.76222772 C12.4634653,1.77339109 13.624703,1.18289604 14.8474505,1.18289604 C16.7488861,1.18289604 18.384703,2.59987624 18.6529208,4.47861386 C18.695198,4.77368812 18.9483416,4.98663366 19.2378713,4.98663366 C19.2654208,4.98663366 19.2938366,4.98455446 19.3220792,4.98074257 C19.645396,4.9344802 19.8701238,4.63490099 19.8240347,4.31175743 Z" id="Shape"></path>
                    <path d="M28.3659406,10.9324752 L26.5916832,7.97532178 C26.4849505,7.7970297 26.2924505,7.68821782 26.0845297,7.68821782 L24.3842574,7.68821782 C24.0578218,7.68821782 23.792896,7.95314356 23.792896,8.27957921 C23.792896,8.60601485 24.0578218,8.87094059 24.3842574,8.87094059 L25.7497772,8.87094059 L26.8143317,10.645198 L2.88074257,10.645198 L3.94529703,8.87094059 L4.57165842,8.87094059 C4.89809406,8.87094059 5.1630198,8.60601485 5.1630198,8.27957921 C5.1630198,7.95314356 4.89809406,7.68821782 4.57165842,7.68821782 L3.61054455,7.68821782 C3.40262376,7.68821782 3.21012376,7.7970297 3.10339109,7.97532178 L1.32913366,10.9324752 C1.21945545,11.1154455 1.21685644,11.3429455 1.32168317,11.5283416 C1.4265099,11.7137376 1.62299505,11.8284406 1.83628713,11.8284406 L27.8587871,11.8284406 C28.0720792,11.8284406 28.2683911,11.7137376 28.3733911,11.5283416 C28.4783911,11.3429455 28.4756188,11.115099 28.3659406,10.9324752 Z" id="Shape"></path>
                    <path d="M25.4179703,5.47923267 C25.3351485,5.34564356 25.2029455,5.25086634 25.0501238,5.21517327 L16.9878218,3.32950495 C16.8351733,3.29363861 16.6743812,3.32032178 16.5409653,3.40279703 C16.407896,3.48561881 16.3129455,3.61782178 16.2772525,3.77064356 L15.6692574,6.36965347 C15.5947525,6.68759901 15.7922772,7.00571782 16.110396,7.07987624 C16.4283416,7.15438119 16.7468069,6.95685644 16.8209653,6.63873762 L17.2943317,4.61584158 L24.2047525,6.23225248 L23.1188861,10.8749505 C23.0443812,11.192896 23.2419059,11.5110149 23.5600248,11.5851733 C23.6055941,11.5957426 23.6508168,11.6007673 23.6955198,11.6007673 C23.9640842,11.6007673 24.2071782,11.4167574 24.2704208,11.1442079 L25.4910891,5.92574257 C25.5271287,5.77309406 25.5007921,5.61230198 25.4179703,5.47923267 Z" id="Shape"></path>
                    <path d="M15.1603713,6.87732673 L14.6215099,2.3195297 C14.6031436,2.16376238 14.5236139,2.0215099 14.4002475,1.9244802 C14.2768812,1.8274505 14.1211139,1.78309406 13.9646535,1.8014604 L4.07282178,2.97066832 C3.74863861,3.00913366 3.51680693,3.30299505 3.55509901,3.62752475 L4.4534901,11.2292822 C4.48918317,11.5302475 4.74440594,11.7515099 5.04017327,11.7515099 C5.06321782,11.7515099 5.08695545,11.7499505 5.1105198,11.7473515 C5.4345297,11.7088861 5.66636139,11.4150248 5.62824257,11.090495 L4.79915842,4.07559406 L13.5164109,3.04534653 L13.9856188,7.01576733 C14.0240842,7.34012376 14.3165594,7.57056931 14.6424752,7.53383663 C14.9666584,7.49571782 15.1984901,7.20168317 15.1603713,6.87732673 Z" id="Shape"></path>
                    <path d="M19.8377228,11.0121782 L18.6638366,6.13054455 C18.627104,5.97824257 18.5312871,5.84638614 18.397698,5.76443069 C18.2641089,5.68316832 18.1038366,5.65769802 17.950495,5.69408416 L8.42304455,7.98537129 C8.10544554,8.06160891 7.91,8.38111386 7.98623762,8.69871287 L8.57292079,11.1386634 C8.64915842,11.4566089 8.96866337,11.6522277 9.28608911,11.5754703 C9.60368812,11.4992327 9.79913366,11.1797277 9.72289604,10.8621287 L9.27430693,8.99707921 L17.6517822,6.98267327 L18.687401,11.2890594 C18.7523762,11.5602228 18.9949505,11.7421535 19.2619554,11.7421535 C19.3078713,11.7421535 19.3543069,11.7367822 19.4009158,11.7255198 C19.7185149,11.6491089 19.9139604,11.3297772 19.8377228,11.0121782 Z" id="Shape"></path>
                    <path d="M28.4499752,11.2067574 C28.4336881,10.8924505 28.1741337,10.6457178 27.8591337,10.6457178 L1.83663366,10.6457178 C1.52163366,10.6457178 1.26207921,10.8922772 1.24579208,11.2067574 L0.0628960396,34.272104 C0.0545792079,34.4339356 0.113143564,34.592302 0.224727723,34.7097772 C0.336485149,34.8270792 0.491386139,34.8937871 0.653564356,34.8937871 L29.0416832,34.8937871 C29.2036881,34.8937871 29.3587624,34.8272525 29.4710396,34.7097772 C29.5824505,34.592302 29.6410149,34.4341089 29.6328713,34.272104 L28.4499752,11.2067574 Z M1.27594059,33.7108911 L2.39819307,11.8284406 L27.2968812,11.8284406 L28.4191337,33.7108911 L1.27594059,33.7108911 Z" id="Shape"></path>
                    <path d="M21.0417745,13.0111634 C20.0633339,13.0111634 19.2675171,13.8069802 19.2675171,14.7854208 C19.2675171,15.7638614 20.0633339,16.5596782 21.0417745,16.5596782 C22.0202151,16.5596782 22.8160319,15.7638614 22.8160319,14.7854208 C22.8160319,13.8069802 22.0202151,13.0111634 21.0417745,13.0111634 Z M21.0417745,15.3769554 C20.7155121,15.3769554 20.4504131,15.1116832 20.4504131,14.7855941 C20.4504131,14.459505 20.7156854,14.1942327 21.0417745,14.1942327 C21.3678636,14.1942327 21.6331359,14.459505 21.6331359,14.7855941 C21.6331359,15.1116832 21.3678636,15.3769554 21.0417745,15.3769554 Z" id="Shape"></path>
                    <path d="M8.6692617,13.0111634 C7.6908211,13.0111634 6.89500427,13.8069802 6.89500427,14.7854208 C6.89500427,15.7638614 7.6908211,16.5596782 8.6692617,16.5596782 C9.64770229,16.5596782 10.4435191,15.7638614 10.4435191,14.7854208 C10.4435191,13.8069802 9.64770229,13.0111634 8.6692617,13.0111634 Z M8.6692617,15.3769554 C8.34317259,15.3769554 8.07790031,15.1116832 8.07790031,14.7855941 C8.07790031,14.459505 8.34317259,14.1942327 8.6692617,14.1942327 C8.99535081,14.1942327 9.26062308,14.459505 9.26062308,14.7855941 C9.26062308,15.1116832 8.99535081,15.3769554 8.6692617,15.3769554 Z" id="Shape"></path>
                    <path d="M14.831151,22.1035263 C11.5984382,22.1568828 9.02655246,19.3988502 8.97451789,16.2468932 C8.96658652,15.7641213 8.21715251,15.7633602 8.22508387,16.2468932 C8.28516998,19.8889526 11.1890515,22.7928342 14.831111,22.8529203 C18.4734909,22.9130064 21.3786943,19.798543 21.4374586,16.2468932 C21.44543,15.7633602 20.695996,15.7641213 20.6880646,16.2468932 C20.6347081,19.4794858 18.0637437,22.0501298 14.831151,22.1035263 Z" id="Shape" stroke="#600000" stroke-width="0.35"></path>
                </g>
            </g>
        </g>
    </g>
</svg>