<?xml version="1.0" encoding="UTF-8"?>
<svg width="67px" height="49px" viewBox="0 0 67 49" version="1.1" xmlns="http://www.w3.org/2000/svg" xmlns:xlink="http://www.w3.org/1999/xlink">
    <!-- Generator: Sketch 49.2 (51160) - http://www.bohemiancoding.com/sketch -->
    <title>delivery-truck</title>
    <desc>Created with Sketch.</desc>
    <defs></defs>
    <g id="Welcome" stroke="none" stroke-width="1" fill="none" fill-rule="evenodd">
        <g id="Checkout-Page" transform="translate(-893.000000, -258.000000)" fill="#000000" fill-rule="nonzero">
            <g id="Shop-for-1500-and-truck" transform="translate(893.000000, 258.000000)">
                <g id="delivery-truck">
                    <path d="M54.0170266,15.7067154 L49.8163191,15.7067154 L51.0819787,1.17495745 C51.0843245,1.14863298 51.0847154,1.12269947 51.0848457,1.09676596 C51.0848457,1.09455053 51.0851064,1.09246543 51.0851064,1.09025 C51.0851064,1.08985904 51.0851064,1.0895984 51.0851064,1.08920745 C51.0851064,0.69368883 50.846492,0.345085106 50.4958032,0.193523936 C50.4928059,0.192220745 50.4899388,0.190656915 50.4869415,0.189353723 C50.4651782,0.180231383 50.442633,0.172412234 50.4199574,0.164853723 C50.4114867,0.162117021 50.4034069,0.158728723 50.3949362,0.15612234 C50.3764309,0.150518617 50.3574043,0.146087766 50.338508,0.141526596 C50.3252154,0.138398936 50.3124441,0.134619681 50.2990213,0.132013298 C50.2824707,0.128755319 50.2652686,0.126670213 50.2483271,0.124194149 C50.2324282,0.121848404 50.2167899,0.119111702 50.2007606,0.117678191 C50.1980239,0.117417553 50.1955479,0.116896277 50.1928112,0.116635638 C50.175609,0.115071809 50.1586676,0.115332447 50.1415957,0.114680851 C50.1301277,0.114289894 50.1189202,0.112986702 50.1074521,0.112986702 L50.0952021,0.112986702 C50.0941596,0.112986702 50.093117,0.112986702 50.0922048,0.112986702 L30.1050266,0.112986702 C29.5655053,0.112986702 29.127633,0.550859043 29.127633,1.09038032 C29.127633,1.6285984 29.5655053,2.06777394 30.1050266,2.06777394 L49.0420931,2.06777394 L47.0969495,24.4012181 C47.0966888,24.4029122 47.0966888,24.4046064 47.0964282,24.4063005 L46.6056463,30.0414309 L12.6433032,30.0414309 L13.2113644,24.1773298 L19.6779309,24.1773298 C20.2178431,24.1773298 20.6553245,23.7397181 20.6553245,23.1999362 C20.6553245,22.6601543 20.2178431,22.2225426 19.6779309,22.2225426 L13.4008484,22.2225426 L14.6003059,9.842875 L24.8922606,9.842875 C25.4321729,9.842875 25.8696543,9.4052633 25.8696543,8.86548138 C25.8696543,8.32569947 25.4321729,7.88808777 24.8922606,7.88808777 L14.7897899,7.88808777 L15.3538112,2.06777394 L26.1954521,2.06777394 C26.7336702,2.06777394 27.1728457,1.6285984 27.1728457,1.09038032 C27.1728457,0.550859043 26.7336702,0.112986702 26.1954521,0.112986702 L14.4667287,0.112986702 C14.4662074,0.112986702 14.4658165,0.113117021 14.4652952,0.113117021 C14.0061809,0.112986702 13.6079255,0.436178191 13.5116197,0.884215426 C13.5109681,0.887473404 13.5097952,0.890601064 13.5091436,0.893859043 C13.5041915,0.918228723 13.5009335,0.943119681 13.4976755,0.968140957 C13.4967633,0.976090426 13.4950691,0.983648936 13.4942872,0.991598404 C13.4941569,0.993162234 13.493766,0.994595745 13.4936356,0.996159574 L12.8258803,7.88808777 L0.977393617,7.88808777 C0.437481383,7.88808777 0,8.32569947 0,8.86548138 C0,9.4052633 0.437481383,9.842875 0.977393617,9.842875 L12.6363963,9.842875 L11.4369388,22.2225426 L7.94972872,22.2225426 C7.40981649,22.2225426 6.97233511,22.6601543 6.97233511,23.1999362 C6.97233511,23.7397181 7.40981649,24.1773298 7.94972872,24.1773298 L11.2475851,24.1773298 L10.5944255,30.9175665 C10.5942952,30.918609 10.5942952,30.9196516 10.5941649,30.9205638 L9.58432181,41.343359 C9.58419149,41.3445319 9.58406117,41.3458351 9.58393085,41.3468777 L9.58353989,41.3506569 C9.5822367,41.3642101 9.58236702,41.3775027 9.58158511,41.3910559 C9.58067287,41.4090399 9.5788484,41.426633 9.5788484,41.4448777 C9.5788484,41.4456596 9.57897872,41.4464415 9.57897872,41.4473537 C9.57897872,41.4725053 9.58080319,41.497266 9.58262766,41.5220266 C9.58340957,41.5299761 9.58314894,41.5380559 9.58406117,41.545875 C9.58666755,41.5711569 9.59096809,41.5960479 9.59552926,41.6208085 C9.59683245,41.6281064 9.59748404,41.6355346 9.59891755,41.6427021 C9.60269681,41.6614681 9.60803989,41.6795824 9.61299202,41.6979574 C9.61638032,41.710859 9.61911702,41.7240213 9.6230266,41.7366622 C9.62419947,41.7401809 9.6257633,41.7435691 9.62680585,41.7472181 C9.6741117,41.8926543 9.7543883,42.023234 9.85916489,42.1298351 C9.86111968,42.1317899 9.86268351,42.1340053 9.8646383,42.1358298 C9.87506383,42.1462553 9.8864016,42.1556383 9.8973484,42.1655426 C9.9647234,42.2273138 10.0408298,42.2797021 10.1241037,42.3207527 C10.1414362,42.3293537 10.158508,42.3383457 10.1762314,42.3457739 C10.1815745,42.3481197 10.1873085,42.3496835 10.1927819,42.3517686 C10.2172819,42.3615426 10.2419122,42.3709255 10.2673245,42.378875 C10.2696702,42.3795266 10.2718856,42.3799176 10.2742314,42.3806995 C10.3031622,42.3893005 10.3323537,42.396859 10.3621968,42.402984 C10.3661064,42.403766 10.3701463,42.4040266 10.3739255,42.4048085 C10.4023351,42.4101516 10.430875,42.4147128 10.4599362,42.4175798 C10.4605878,42.4175798 10.461109,42.4177101 10.4617606,42.4178404 C10.4938191,42.4209681 10.525617,42.4225319 10.5571543,42.4225319 C10.5575452,42.4225319 10.5580665,42.4224016 10.5585878,42.4224016 L14.9096835,42.4224016 C15.3901702,46.0652128 18.5132686,48.8866223 22.2853564,48.8866223 C26.0571835,48.8866223 29.1802819,46.0652128 29.6607686,42.4224016 L45.3380319,42.4224016 C45.8186489,46.0652128 48.941617,48.8866223 52.7135745,48.8866223 C56.4854016,48.8866223 59.6087606,46.0652128 60.0893777,42.4224016 L64.441516,42.4224016 C64.4421676,42.4224016 64.4429495,42.4225319 64.4436011,42.4225319 C64.4761809,42.4225319 64.5082394,42.4205771 64.5400372,42.4174495 C64.5457713,42.4169282 64.5512447,42.4157553 64.5569787,42.4151037 C64.582391,42.4121064 64.6076729,42.4085878 64.6324335,42.4036356 C64.6431197,42.4015505 64.6534149,42.3986835 64.6639707,42.3962074 C64.6831277,42.3917766 64.7024149,42.3870851 64.7211809,42.3814814 C64.7339521,42.3777021 64.7463324,42.3732713 64.7588431,42.3689707 C64.7748723,42.3634973 64.7909016,42.3577633 64.8066702,42.3513777 C64.8202234,42.3460346 64.833125,42.3401702 64.8462872,42.3343059 C64.8606223,42.3276596 64.8749574,42.320883 64.8889016,42.3137154 C64.9021941,42.3069388 64.9149654,42.2999016 64.9277367,42.2926037 C64.9411596,42.2847846 64.9544521,42.2767048 64.9676144,42.2683644 C64.9798644,42.2605452 64.9921144,42.2525957 65.0038431,42.2442553 C65.0171356,42.2350027 65.0297766,42.2252287 65.0426782,42.2153245 C65.0533644,42.2068537 65.0641809,42.1985133 65.0746064,42.1896516 C65.0880293,42.1783138 65.1006702,42.1664548 65.1134415,42.1543351 C65.1223032,42.1458644 65.1315559,42.1375239 65.1401569,42.1286622 C65.1537101,42.1148484 65.1666117,42.1002527 65.1795133,42.0855266 C65.1864202,42.0775771 65.1935878,42.0698883 65.200234,42.0618085 C65.2145691,42.0440851 65.2276011,42.0258404 65.240633,42.0074654 C65.2450638,42.0010798 65.250016,41.9950851 65.2543165,41.9885691 C65.2702154,41.9647207 65.2852021,41.9402207 65.299016,41.9149388 C65.3000585,41.913375 65.3011011,41.9119415 65.3017527,41.9102473 C65.3164787,41.883141 65.3300319,41.855383 65.3421516,41.8267128 C65.3455399,41.8185027 65.3481463,41.8100319 65.3514043,41.8018218 C65.3593537,41.7816223 65.3671729,41.7614229 65.3738191,41.7404415 C65.3781197,41.7268883 65.3812473,41.7129441 65.3850266,41.6992606 C65.3893271,41.6829707 65.3938883,41.6668112 65.3975372,41.6502606 C65.4007952,41.6355346 65.4028803,41.6204176 65.4053564,41.6054309 C65.4075718,41.5922686 65.4104388,41.579367 65.412133,41.5659441 C65.4535745,41.233891 66.2189388,35.093383 66.560766,31.1228191 C66.5611569,31.1190399 66.5612872,31.1151303 66.5616782,31.1113511 C66.6600691,29.966758 66.7231436,29.0029176 66.7231436,28.4128324 C66.7231436,21.4067447 61.0232447,15.7067154 54.0170266,15.7067154 Z M49.645992,17.6617633 L53.6445745,17.6617633 L53.1338537,23.5256037 L49.1352713,23.5256037 L49.645992,17.6617633 Z M22.285617,46.9317048 C19.2599973,46.9317048 16.7985293,44.4702367 16.7985293,41.4447473 C16.7985293,38.419258 19.2601277,35.9577899 22.285617,35.9577899 C25.3111064,35.9577899 27.7725745,38.419258 27.7725745,41.4447473 C27.7725745,44.4702367 25.3111064,46.9317048 22.285617,46.9317048 Z M52.7135745,46.9317048 C49.6880851,46.9317048 47.2267473,44.4702367 47.2267473,41.4447473 C47.2267473,38.419258 49.6882154,35.9577899 52.7135745,35.9577899 C55.7391941,35.9577899 58.2006622,38.419258 58.2006622,41.4447473 C58.2006622,44.4702367 55.7391941,46.9317048 52.7135745,46.9317048 Z M63.577891,40.4669628 L60.0896383,40.4669628 C59.6092819,36.823891 56.4860532,34.0023511 52.7138351,34.0023511 C48.9418777,34.0023511 45.8186489,36.8240213 45.3382926,40.4669628 L29.6611596,40.4669628 C29.1808032,36.823891 26.0577048,34.0023511 22.285617,34.0023511 C18.5135293,34.0023511 15.3901702,36.8240213 14.9098138,40.4669628 L11.6330691,40.4669628 L12.4539495,31.9956968 L47.5013298,31.9956968 L47.5013298,31.9962181 C47.5018511,31.9962181 47.502242,31.9962181 47.5027633,31.9962181 C47.5354734,31.9962181 47.5679229,31.9943936 47.5999814,31.9911356 C47.6059761,31.9906144 47.6118404,31.9893112 47.6178351,31.9885293 C47.6433777,31.9855319 47.6687899,31.981883 47.6938112,31.9769309 C47.7046277,31.9747154 47.7151835,31.9717181 47.7258697,31.9691117 C47.7454176,31.9644202 47.7649654,31.959859 47.783992,31.954125 C47.7970239,31.9502154 47.8094043,31.9455239 47.8220452,31.9410931 C47.8384654,31.935359 47.8548856,31.9297553 47.8707846,31.9232394 C47.8844681,31.9176356 47.8976303,31.9113803 47.9109229,31.905125 C47.9253883,31.8984787 47.9398537,31.8918324 47.9537979,31.8845346 C47.9670904,31.8774973 47.9801223,31.8699388 47.9932846,31.8623803 C48.0067074,31.8545612 48.02,31.8466117 48.0330319,31.8382713 C48.0456729,31.8300612 48.0576622,31.8214601 48.0697819,31.812859 C48.0826835,31.8037367 48.0951941,31.7943537 48.1077048,31.7845798 C48.1189122,31.7755878 48.1299894,31.7663351 48.1409362,31.7568218 C48.1533165,31.7461356 48.1654362,31.7351888 48.1771649,31.7238511 C48.1870691,31.7143378 48.1969734,31.7045638 48.206617,31.6945293 C48.2183457,31.6822793 48.2296835,31.6696383 48.240891,31.6567367 C48.2496223,31.6465718 48.2582234,31.6364069 48.2665638,31.6259814 C48.2773803,31.6122979 48.2876755,31.5982234 48.2978404,31.5840186 C48.3055293,31.5733324 48.3129574,31.5626463 48.3202553,31.5516995 C48.3297686,31.5369734 48.338891,31.5218564 48.3476223,31.5064787 C48.3542686,31.4950106 48.3610452,31.4835426 48.3670399,31.4718138 C48.37525,31.4564362 48.3822872,31.4407979 48.3897154,31.4250293 C48.3954495,31.4123883 48.4013138,31.400008 48.4065266,31.3869761 C48.4129122,31.3715984 48.4182553,31.3558298 48.423859,31.3400612 C48.4286809,31.326117 48.4337633,31.3121729 48.4380638,31.2978378 C48.4423644,31.2827207 48.445883,31.2672128 48.4497926,31.2518351 C48.4535718,31.2363271 48.457742,31.2209495 48.4607394,31.2051809 C48.4637367,31.1898032 48.4655612,31.1741649 48.4679069,31.1585266 C48.4702527,31.142367 48.4729894,31.1264681 48.4745532,31.1100479 C48.4748138,31.1077021 48.4753351,31.1054867 48.4754654,31.103141 L48.9653351,25.4798697 L54.016766,25.4798697 C57.0113697,25.4798697 58.3619973,27.0314495 59.7917287,28.6742527 C60.971508,30.0297021 62.2886436,31.5420559 64.5275266,31.9109894 C64.2431702,34.9174521 63.7835346,38.776984 63.577891,40.4669628 Z M64.6945957,29.9522926 C63.2421888,29.6562074 62.3485904,28.6351569 61.2660293,27.391391 C59.9121436,25.8360319 58.2593059,23.9379335 55.0908564,23.5842473 L55.5964947,17.7787899 C60.7785053,18.5451968 64.7683564,23.0213989 64.7683564,28.4130931 C64.7683564,28.7794202 64.7409894,29.3116436 64.6945957,29.9522926 Z" id="Shape"></path>
                    <path d="M22.285617,37.8608404 C20.3095878,37.8608404 18.7018404,39.4684574 18.7018404,41.444617 C18.7018404,43.4207766 20.3095878,45.0283936 22.285617,45.0283936 C24.2616463,45.0283936 25.8693936,43.4207766 25.8693936,41.444617 C25.8693936,39.4685878 24.2616463,37.8608404 22.285617,37.8608404 Z M22.285617,43.0736064 C21.3873271,43.0736064 20.6566277,42.3429069 20.6566277,41.444617 C20.6566277,40.5463271 21.3873271,39.8156277 22.285617,39.8156277 C23.1839069,39.8156277 23.9146064,40.5463271 23.9146064,41.444617 C23.9146064,42.3429069 23.1837766,43.0736064 22.285617,43.0736064 Z" id="Shape"></path>
                    <path d="M52.7135745,37.8608404 C50.7375452,37.8608404 49.1297979,39.4684574 49.1297979,41.444617 C49.1297979,43.4207766 50.7375452,45.0283936 52.7135745,45.0283936 C54.6896037,45.0283936 56.2973511,43.4207766 56.2973511,41.444617 C56.2973511,39.4685878 54.6896037,37.8608404 52.7135745,37.8608404 Z M52.7135745,43.0736064 C51.8152846,43.0736064 51.0845851,42.3429069 51.0845851,41.444617 C51.0845851,40.5463271 51.8152846,39.8156277 52.7135745,39.8156277 C53.6118644,39.8156277 54.3425638,40.5463271 54.3425638,41.444617 C54.3425638,42.3429069 53.6118644,43.0736064 52.7135745,43.0736064 Z" id="Shape"></path>
                    <path d="M9.25265957,15.7069761 L4.47437766,15.7069761 C3.93446543,15.7069761 3.49698404,16.1445878 3.49698404,16.6843697 C3.49698404,17.2241516 3.93446543,17.6617633 4.47437766,17.6617633 L9.25265957,17.6617633 C9.79257181,17.6617633 10.2300532,17.2241516 10.2300532,16.6843697 C10.2300532,16.1445878 9.79257181,15.7069761 9.25265957,15.7069761 Z" id="Shape"></path>
                </g>
            </g>
        </g>
    </g>
</svg>