<?xml version="1.0" encoding="UTF-8"?>
<svg width="202px" height="61px" viewBox="0 0 202 61" version="1.1" xmlns="http://www.w3.org/2000/svg" xmlns:xlink="http://www.w3.org/1999/xlink">
    <!-- Generator: Sketch 49.2 (51160) - http://www.bohemiancoding.com/sketch -->
    <title>full-red-yellow</title>
    <desc>Created with Sketch.</desc>
    <defs>
        <path d="M82.3417316,11.3236681 C81.9366661,11.07653 81.8820888,10.8744838 82.2479269,10.5727152 C82.6154705,10.2683451 82.8619209,9.91107887 82.8346323,9.42807567 C82.8090492,8.95027538 82.5446907,9.05693497 82.1643555,9.3387591 C82.1131893,9.3760466 82.0594649,9.40986549 82.0040348,9.44108294 C81.5912944,9.67087799 81.4258572,9.44021579 81.5094286,8.96848555 C81.5878833,8.51756695 81.5273367,8.07705416 81.3508134,7.62960416 C81.1862289,7.21423875 80.9542756,6.85350387 80.6694506,6.52745503 C80.3564842,6.1693216 80.1040645,6.17886027 80.1680222,6.48583178 C80.2328327,6.79280329 80.246477,7.09370474 80.2345382,7.15960823 C80.2294216,7.19689573 80.2277161,7.23678468 80.2328327,7.28100939 C80.2422131,7.37726317 80.2498881,7.47351695 80.2541519,7.56977073 C80.2643851,7.72932654 80.2558574,7.91923265 80.2362438,7.99207335 C80.2174828,8.06491404 80.1262365,8.1811123 80.0639843,8.27303032 C80.0017321,8.36668265 79.9360689,8.05797683 79.7194655,7.63307276 C79.3928548,6.99138091 78.8155298,6.58035125 78.1247866,6.26904399 C77.8254645,6.13463556 77.5380812,5.96987684 77.2566673,5.80251666 C76.7450056,5.49814661 76.455064,5.06196957 76.5070829,4.43328498 C76.5121995,4.36651434 76.5121995,4.2997437 76.5113467,4.2234344 C76.5087884,4.10810329 76.2333439,4.24684748 76.1276005,4.65354137 C76.0218571,5.06023527 75.9127026,5.36026957 75.877739,5.32298207 C75.8581253,5.29956899 75.8368061,5.27528876 75.8214562,5.25100852 C75.1537378,4.22256725 74.1739056,3.74303265 73.0022004,3.70921376 C72.2023026,3.68580068 71.398141,3.77338295 70.5982433,3.83495068 C69.434213,3.9251344 68.2778576,3.96155475 67.1854599,3.42999109 C67.1675517,3.42045242 67.1462325,3.41264806 67.1206494,3.4048437 C67.0839803,3.39010213 67.0635139,3.60428847 67.2238345,3.80026463 C67.3201975,3.91819719 67.4532295,3.9979751 67.6016114,4.0404655 C68.0748985,4.17834254 68.5626826,4.2607219 69.0453501,4.35697568 C69.4632071,4.44022219 69.8844753,4.51132858 70.3048906,4.58937219 C70.7679444,4.6760873 71.1678933,4.76973963 71.2028568,4.77841114 C71.2361148,4.7862155 71.328214,4.80269137 71.4075215,4.82263585 C71.4561294,4.83477597 71.5021789,4.84604893 71.549934,4.8590562 C71.9387969,4.96138004 72.293549,5.22325969 72.6431845,5.44611754 C72.8640518,5.58659602 72.9544453,5.79557945 72.7728054,6.06266201 C72.722492,6.13550271 72.6883812,6.21874922 72.655976,6.30980009 C72.6031043,6.45201288 72.5468215,6.5421966 72.5297661,6.51358062 C72.5161218,6.49276899 72.5067413,6.47629312 72.4990664,6.45981724 C71.9984907,5.42530591 71.1337825,4.95097422 70.0499125,4.83651027 C69.0726387,4.73331928 68.1115675,4.90674951 67.1504964,5.05069661 C66.0845345,5.21111957 65.0339226,5.23800126 64.0361823,4.72378062 C63.9756357,4.69256318 63.9065613,4.674353 63.8391925,4.66047858 C63.8101984,4.65440853 63.7786459,4.65527568 63.7240687,4.65700998 C63.6618165,4.65874428 63.8246955,4.98305882 64.1470423,5.33165358 C64.4096953,5.61521201 64.6945203,5.85801434 65.0126033,6.0574591 C65.4142577,6.30806579 65.4628656,6.6540591 65.0023701,6.75551579 C64.0344767,6.96970213 62.8653298,6.64452044 62.2990909,5.89703614 C62.0040327,5.50768527 61.7925458,5.05329806 61.5188068,4.64747132 C61.1197107,4.05694138 60.3999733,3.91039283 59.8823422,4.31535242 C59.7765988,4.39859893 59.6819414,4.49658701 59.5941062,4.60584806 C59.4525464,4.78361405 59.4406077,4.92235823 59.5369706,4.89287509 C59.5924006,4.87466492 59.6512417,4.8573219 59.70923,4.84258033 C60.1287926,4.73852219 60.3957094,4.84951754 60.6012269,5.23800126 C60.7453449,5.51288818 60.8502356,5.81032102 60.9952064,6.08607509 C61.0591641,6.20834341 61.129944,6.32540881 61.2015766,6.43900562 C61.3218171,6.63064602 61.1350606,6.80234195 60.782014,6.82662218 C60.5688216,6.84223091 60.3547765,6.86477684 60.1492591,6.91680591 C59.0986471,7.18041986 58.359296,7.84118904 57.9712859,8.88003614 C57.9124448,9.03785765 57.8518981,9.21735794 57.8698063,9.37864805 C57.9039171,9.71076695 57.7325104,9.90674311 57.5116431,10.0905792 C56.9991287,10.5154832 56.4371536,10.7418097 55.7754045,10.5128818 C55.5588011,10.4383068 55.3362282,10.3385844 55.3012647,10.0654318 C55.2637428,9.77233468 55.4385606,9.57028846 55.6688083,9.46276172 C55.8223068,9.39165532 55.9817747,9.33529049 56.1420954,9.28239427 C56.4081594,9.19567916 56.3220297,8.86356026 55.8572704,8.78811811 C55.5212792,8.73348759 55.1528828,8.74909631 54.8765855,8.86269311 C54.7503756,8.91472218 54.6250185,8.98756288 54.5192751,9.0760123 C54.1346761,9.39425677 54.0451353,9.91281317 54.3632183,10.3160385 C54.5533859,10.5571065 54.8347998,10.7348725 55.0991583,10.9004983 C55.2620373,11.001955 55.4325912,11.0930059 55.6022923,11.1814553 C55.8854118,11.3280039 56.1173651,11.4702167 56.1182178,11.5014341 C56.1207761,11.5326515 55.8947922,11.6254367 55.6133783,11.7086832 C55.4428244,11.7607123 55.2731233,11.8127414 55.1068332,11.8760434 C54.0860682,12.2619257 53.0516588,12.6191919 52.0573296,13.0692434 C51.1457191,13.4837417 50.4473009,14.1861341 49.8452457,15.0038576 C49.5672428,15.3836698 49.1809383,15.69411 48.8057197,15.9863399 C47.495013,17.007844 45.9873166,17.6399972 44.4199263,18.1056573 C42.0705465,18.8063155 39.6972891,19.4263286 37.3436454,20.1122451 C36.1821733,20.4513012 35.0249652,20.8198405 33.8941929,21.2499475 C32.5127064,21.7763082 31.3418539,22.6486623 30.2434868,23.6536905 C28.6607467,25.1027001 26.8673725,26.1996463 24.7542098,26.673978 C22.9582773,27.0772033 21.2280081,26.9063745 19.5608438,26.0877838 C18.6245029,25.6290608 17.6301737,25.348971 16.5863839,25.3212222 C16.3331113,25.3142849 16.0499919,25.4001329 15.8257135,25.526737 C15.3848317,25.7764765 15.3745985,26.2950329 15.7856334,26.5915986 C15.8811435,26.6601035 15.9851814,26.7164684 16.0968942,26.7598259 C16.2785341,26.8317995 16.3595472,26.8135893 16.2648898,26.7598259 C16.208607,26.7277413 16.1514715,26.6939224 16.0994525,26.6557678 C15.8478855,26.4754004 15.7745474,26.1545544 15.9271931,25.9412352 C16.0858082,25.7201117 16.3996274,25.6568097 16.6358445,25.8285056 C17.1671199,26.2135207 17.6932786,26.605473 18.2424622,27.0121669 C18.6219446,27.2948582 18.553723,27.6018297 18.1153995,27.7752599 C17.718009,27.9330815 17.3658152,28.1333934 17.0647875,28.3874687 C16.7015078,28.693573 16.1113913,28.9996774 15.6415153,28.9667256 C15.2782355,28.9407111 14.9234834,28.9164309 14.5678786,28.8947521 C13.578666,28.8349187 12.8700146,29.2927745 12.3336226,30.1139666 C11.7545921,30.999328 11.3751097,31.9410541 11.3836374,33.0206573 C11.3844902,33.1307855 11.3853429,33.2461166 11.410926,33.3510419 C11.5055834,33.7455957 11.8373107,33.9120887 12.1843879,33.7213155 C12.2730759,33.6710207 12.354089,33.6068515 12.4274272,33.5296751 C12.5468149,33.4056724 12.6039505,33.2894742 12.5868951,33.2955442 C12.5758091,33.29988 12.5655759,33.3042157 12.5570482,33.311153 C12.3677334,33.4646387 12.1698908,33.6467405 11.9259988,33.4481628 C11.6948982,33.2617253 11.6889289,32.9807684 11.7759113,32.7249588 C12.1954739,31.4962056 13.467806,30.4981146 14.7503712,30.2691867 C15.2142778,30.1859402 15.6005824,30.2492422 15.6022879,30.2622495 C15.6039935,30.2735224 15.6048462,30.2839283 15.6005824,30.2865297 C14.7947152,30.8692553 14.322281,31.7086576 13.9018656,32.582746 C13.6485931,33.1082396 13.4422229,33.6580134 13.1625145,34.1670312 C12.986844,34.4861428 12.7386881,34.774037 12.4794462,35.0315809 C12.1835351,35.3264123 11.7869973,35.3671684 11.3921651,35.3047335 C11.2898328,35.2873905 11.1423036,35.1998082 11.1209844,35.1156945 C11.0954013,35.015105 11.1474203,34.8520806 11.2233167,34.7723027 C11.2872744,34.7046649 11.3623182,34.6474329 11.4416257,34.5945367 C11.5695411,34.5060873 11.6667569,34.4219736 11.6556709,34.4020291 C11.6445848,34.3820846 11.4450368,34.4740027 11.211378,34.6110125 C11.0681127,34.6959934 10.9308168,34.7853099 10.8139874,34.8971724 C10.5683898,35.1347719 10.7653795,35.5093812 11.1499786,35.6125721 C12.0095702,35.8458358 12.8162901,35.7200989 13.5752549,35.2553059 C13.6426237,35.2136826 13.7134036,35.1772623 13.7824779,35.1391076 C13.7875945,35.1365062 13.7952694,35.1373733 13.8123248,35.1382405 C13.8293802,35.1391076 13.830233,35.1894024 13.8148831,35.250103 C13.8055027,35.2873905 13.796975,35.3238108 13.7875945,35.3602312 C13.4865669,36.4883948 13.2077113,37.6234957 12.875984,38.7429878 C12.6849636,39.386414 12.461538,40.0315745 12.1579521,40.6273073 C11.2744829,42.3598753 9.61328799,43.069205 7.76960041,42.5324384 C7.2477055,42.3789527 6.73604382,42.1769064 6.23461538,41.9627201 C5.39975408,41.6106567 4.55721785,41.5248088 3.67715976,41.7676111 C3.19619779,41.9002852 2.9054034,42.2115925 2.75019936,42.6642454 C2.41079711,43.6614692 2.51909883,44.6300771 2.97106665,45.5683346 C3.09727653,45.8302143 3.21751702,46.0946954 3.34969629,46.3531064 C3.41706508,46.4866477 3.49040325,46.6236576 3.58761897,46.7337858 C3.96624861,47.1630256 4.51372661,47.0615689 4.7345939,46.528271 C4.82072361,46.3192875 4.83607346,46.0270576 4.76017698,45.7677794 C4.63908372,45.3576169 4.33379225,45.3645541 4.41395258,45.5440544 C4.4608549,45.650714 4.50605168,45.7608422 4.54357354,45.874439 C4.57597878,45.9698256 4.5725677,46.115507 4.52140153,46.1952849 C4.41992197,46.3531064 4.29030101,46.5655585 4.13936081,46.5959088 C4.01912032,46.6210561 3.80081134,46.442423 3.71638716,46.2984759 C3.47334786,45.8822433 3.49125602,45.4053102 3.53901111,44.9431186 C3.5645942,44.6959806 3.63025744,44.4445067 3.72576762,44.2155788 C4.1564162,43.1732631 5.26160542,42.8480814 6.15189674,43.5218579 C6.92450588,44.1054506 7.66726808,44.7297995 8.41941074,45.341141 C9.32590468,46.080821 10.2869759,46.7086384 11.4484479,46.953175 C14.4698101,47.5870625 17.3999259,45.6090907 18.0045395,42.5333056 C18.2740146,41.1545352 18.1674185,39.7566875 18.2450205,38.3675114 C18.2978922,37.4240509 18.4513907,36.5048707 18.8146705,35.629048 C19.4278117,34.1540239 20.4690432,33.0570777 21.7797499,32.2081367 C21.9306901,32.1101486 22.1310909,32.0815326 22.3135836,32.0425108 C23.4631168,31.7875684 24.5734227,31.4172948 25.5993043,30.8241634 C25.6385317,30.8024846 25.6769063,30.7790716 25.715281,30.7556585 C25.7775331,30.7157695 26.0461555,30.5995713 26.307103,30.483373 C26.5689032,30.3663076 26.7121685,30.643796 26.6891437,31.1215963 C26.6567385,31.8144501 26.6985242,32.5099053 26.7292239,33.2036262 C26.7675985,34.0811832 26.8170591,34.9587402 26.8076787,35.8362971 C26.8000037,36.6028588 26.7181379,37.3711547 26.4111409,38.0856873 C26.3224528,38.2938035 26.2090345,38.5131928 26.0487138,38.6640771 C25.5703102,39.11673 25.0654706,39.5416341 24.5666005,39.971741 C24.3320889,40.1729201 24.0788164,40.3532875 23.8477158,40.5596695 C23.1126286,41.2152358 22.9420747,42.0381622 23.2541883,42.948671 C23.4230367,43.4394785 23.3155877,43.9060058 23.2720965,44.3794704 C23.1561198,45.6056221 22.5566229,46.6314619 21.9059598,47.6295529 C21.5844657,48.1203605 21.2962296,48.6146367 21.2723521,49.2355169 C21.2663827,49.3916041 21.102651,49.5849788 20.9593857,49.6847012 C20.5270316,49.9847355 20.0946774,50.3081829 19.6171265,50.5084948 C18.8283148,50.8397465 18.4837959,51.3808489 18.5187595,52.2401957 C18.5392259,52.7518148 18.487207,53.2695041 18.4377464,53.7811233 C18.3789053,54.4020035 18.4727099,54.978659 18.7839708,55.5223628 C19.0466238,55.9793515 19.4695974,56.1050884 19.9386206,56.1484459 C21.0591597,56.2516369 21.9886784,55.8484116 22.7229129,55.001205 C23.0418487,54.6309314 23.3121766,54.215566 23.5833573,53.8054035 C24.0626138,53.0787308 24.6083862,52.4179616 25.3042461,51.8950695 C25.9472343,51.4111992 26.3480359,50.7573672 26.6541801,50.0142186 C27.5743184,47.7856401 28.804012,45.7634436 30.5811835,44.1236608 C31.5686906,43.2122849 32.628683,42.4240445 33.986292,42.1829765 C34.6795936,42.0581067 35.3822756,41.9765945 36.0661967,41.8179059 C38.0898186,41.3496442 39.7331054,40.1972003 41.1580832,38.7204419 C41.820685,38.032791 42.3997155,37.2532221 42.9659544,36.4762547 C43.7658522,35.3784413 44.7337455,34.4896114 45.8986286,33.8175692 C46.0035192,33.7577358 46.1433734,33.7169797 46.2610556,33.7282527 C48.689743,33.9589149 51.1184305,33.9753907 53.5513817,33.8626611 C54.885966,33.8010934 56.2162863,33.6866294 57.5687787,33.3874623 C58.030127,33.2868727 58.3166575,33.2799355 58.218589,33.4013367 C58.1529258,33.4811146 58.096643,33.5504867 58.044624,33.6233274 C57.8988005,33.8271079 57.7427437,34.0265527 57.6259142,34.2468091 C57.3231811,34.8225974 57.471563,35.2657117 58.0608267,35.5293256 C58.1469564,35.5674803 58.2339389,35.6021663 58.3226269,35.6351181 C58.4693032,35.6888814 58.6569125,35.8016111 58.7507172,35.8796547 C58.843669,35.9585655 58.9246821,36.0236018 58.9187127,36.0409448 C58.9170072,36.0504835 58.9135961,36.059155 58.910185,36.0695608 C58.8069999,36.374798 58.6799373,36.6722309 58.6040408,36.9844053 C58.4138732,37.7414282 58.5972187,38.0908902 59.3450975,38.2842649 C60.1100317,38.4811082 60.8903157,38.6276567 61.669747,38.7690024 C62.2044335,38.8652561 62.7033036,38.7057003 63.1288356,38.3787843 C63.6362334,37.9920349 64.1061094,37.5523893 64.6100961,37.1621713 C65.2709925,36.6505521 65.938711,36.1406672 66.6320125,35.6758742 C67.1359993,35.3385524 67.7158825,35.2041439 68.3273182,35.1798637 C69.5049928,35.1330375 70.4029591,33.7507986 69.981691,32.6182992 C69.9109111,32.4275259 69.8179592,32.2462913 69.7147741,32.0624553 C69.5484841,31.7641553 69.8017566,31.3505242 69.992777,30.91348 C70.1582142,30.5336678 70.1582142,30.0740777 70.1727113,29.628362 C70.1880612,29.1384216 70.1309256,28.641544 70.0763484,28.1516035 C70.0013047,27.48303 69.6465526,26.9948239 69.0734915,26.6653065 C68.3111156,26.2282623 67.4813709,25.9967329 66.6362764,25.8120297 C66.6089877,25.8050925 66.5825519,25.7990224 66.5441773,25.7912181 C66.4930111,25.779078 66.7198478,25.486848 66.9526538,25.0697483 C67.2622092,24.5121701 67.4276464,23.8990943 67.5521508,23.2712768 C67.6604525,22.7284402 67.7303796,22.1786663 67.8199204,21.631494 C67.8727921,21.310648 68.0220267,21.0470341 68.2770048,20.8432536 C69.1425658,20.1495326 70.0081268,19.457546 70.8668657,18.7560207 C71.3717052,18.3432568 71.9405024,18.3770757 72.537441,18.4239018 C73.0209613,18.4611893 73.2836143,18.7300062 73.4942484,19.1176227 C73.9948241,20.0411387 73.9735048,21.0132152 73.750932,22.0009004 C73.7202323,22.1370431 73.6878271,22.2827245 73.6161944,22.3980556 C73.1164715,23.1984361 73.6613912,24.5546605 74.4160922,24.9466129 C74.5840878,25.0350623 74.7324696,25.0810213 74.8953486,25.0862242 C75.1733515,25.0931614 75.5843863,25.291739 75.9553411,25.4755751 C76.1753556,25.583969 76.4201004,25.647271 76.6733729,25.6862928 C77.9593493,25.8857376 79.0338388,25.0749512 79.1796624,23.7516786 C79.3655661,22.0702725 79.7262876,20.438294 80.2422131,18.8297286 C80.4306752,18.2487373 80.4502889,17.6035768 80.4886635,16.9844309 C80.5432408,16.0695864 80.5483574,15.1530076 80.5730877,14.2355617 C80.5824682,13.9433318 80.5935542,13.6502347 80.5858792,13.3580047 C80.5594434,12.5784358 81.496637,11.8006012 82.2300188,12.0486065 C82.3946033,12.1041042 82.5498073,12.1925536 82.6947781,12.2853387 C82.9395229,12.4431603 83.1015491,12.1639376 82.8278101,11.7728524 C82.6964836,11.5942193 82.5353102,11.4424678 82.3417316,11.3236681 Z M63.9509053,31.9974189 C63.8664812,32.0164963 63.7846153,32.0312378 63.7061605,32.0190977 C63.3309419,31.9609986 63.0000674,32.0425108 62.6819844,32.2376198 C62.6120573,32.2801102 62.5139888,32.3278035 62.4457672,32.3095934 C62.2436609,32.2540957 62.0407017,32.1933951 61.8377426,32.1309602 C61.5026042,32.0277692 61.5264818,31.7112591 61.8906143,31.4268335 C62.1123344,31.2534033 62.3306434,31.0834416 62.5498051,30.9152143 C62.5847687,30.8883326 62.6700456,30.8883326 62.7101258,30.9126128 C62.9633983,31.0695672 63.2149653,31.2282559 63.4648267,31.3869445 C63.8656284,31.6401527 64.1905336,31.8673463 64.1905336,31.8924937 C64.188828,31.917641 64.0822318,31.9653344 63.9509053,31.9974189 Z M70.4916471,7.56370067 C70.3483818,7.57323933 70.2051166,7.58017654 70.0618513,7.58191085 C69.9970408,7.582778 69.9177333,7.53508468 69.8665671,7.48825852 C69.7181852,7.35298294 69.5715089,7.21684021 69.4282436,7.08069748 C69.1869098,6.85523817 69.0214726,6.67226928 69.0564361,6.67313643 C69.0777553,6.67400358 69.0999273,6.67487073 69.1212466,6.67573788 C69.182646,6.67920649 69.2457509,6.68354224 69.3080031,6.69047945 C69.3446722,6.69568236 69.4435934,6.70868963 69.4580905,6.71129108 C69.644847,6.74944573 69.8316035,6.79627189 70.0098324,6.86477684 C70.0209184,6.86911259 70.0285933,6.87344835 70.037121,6.8760498 C70.0541764,6.88211986 70.1249562,6.9150716 70.1948833,6.95149195 C70.2409329,6.97403788 70.2810131,6.99745096 70.3193877,7.02086404 C70.3594678,7.04427713 70.4004008,7.07029166 70.4396282,7.0963062 C70.5052914,7.1387966 70.5854517,7.20209864 70.6212681,7.23244893 C70.6528205,7.25846346 70.684373,7.28534515 70.6860785,7.2862123 C70.7184838,7.31742974 70.750889,7.34778003 70.7824415,7.37899747 C70.8353132,7.43102654 70.8839211,7.48739137 70.8967126,7.50213294 C70.9086514,7.51774166 70.7278642,7.54809195 70.4916471,7.56370067 Z M78.3627092,9.73938294 C78.3473594,9.78274049 78.089823,9.71770416 77.7794149,9.59110009 C77.5918056,9.51479079 77.4067547,9.43761433 77.2234092,9.35696927 C77.1671265,9.33355619 77.1031687,9.26678555 77.0903772,9.20781927 C77.0340944,8.97542276 76.9812227,8.74129195 76.9292038,8.50802829 C76.8430741,8.12041172 76.7970245,7.79956579 76.8226076,7.79176143 C76.8490434,7.78395707 77.1611571,8.02762654 77.5304062,8.32679369 C77.7316598,8.49068526 77.9252385,8.6641155 78.0795898,8.86789602 C78.3644148,9.24857538 78.3780591,9.69515823 78.3627092,9.73938294 Z" id="path-1"></path>
        <filter x="-5.0%" y="-3.8%" width="109.9%" height="115.2%" filterUnits="objectBoundingBox" id="filter-2">
            <feOffset dx="0" dy="2" in="SourceAlpha" result="shadowOffsetOuter1"></feOffset>
            <feGaussianBlur stdDeviation="1" in="shadowOffsetOuter1" result="shadowBlurOuter1"></feGaussianBlur>
            <feColorMatrix values="0 0 0 0 0   0 0 0 0 0   0 0 0 0 0  0 0 0 0.5 0" type="matrix" in="shadowBlurOuter1"></feColorMatrix>
        </filter>
        <text id="text-3" font-family="Avenir-Book, Avenir" font-size="40" font-weight="normal" fill="#C9A560">
            <tspan x="57.2965733" y="57">dorchee</tspan>
        </text>
        <filter x="-2.7%" y="-3.6%" width="105.4%" height="114.5%" filterUnits="objectBoundingBox" id="filter-4">
            <feOffset dx="0" dy="2" in="SourceAlpha" result="shadowOffsetOuter1"></feOffset>
            <feGaussianBlur stdDeviation="1" in="shadowOffsetOuter1" result="shadowBlurOuter1"></feGaussianBlur>
            <feColorMatrix values="0 0 0 0 0   0 0 0 0 0   0 0 0 0 0  0 0 0 0.5 0" type="matrix" in="shadowBlurOuter1"></feColorMatrix>
        </filter>
    </defs>
    <g id="Welcome" stroke="none" stroke-width="1" fill="none" fill-rule="evenodd">
        <g id="Product-Detail-Page" transform="translate(-620.000000, -19.000000)">
            <g id="header">
                <g id="full-red-yellow" transform="translate(618.000000, 18.000000)">
                    <g id="red-yellow" fill-rule="nonzero">
                        <g id="horse-yellow">
                            <g id="Shape" transform="translate(42.760861, 29.784203) rotate(-5.000000) translate(-42.760861, -29.784203) ">
                                <use fill="black" fill-opacity="1" filter="url(#filter-2)" xlink:href="#path-1"></use>
                                <use fill="#C9A560" fill-rule="evenodd" xlink:href="#path-1"></use>
                            </g>
                        </g>
                        <g id="horse-dark-red" transform="translate(0.424253, 0.010898)" fill="#600000">
                            <path d="M81.9321208,11.6589767 C81.5290806,11.4136038 81.4747763,11.2130008 81.8387852,10.9133877 C82.2044911,10.6111917 82.4497092,10.2564773 82.422557,9.77692416 C82.3971019,9.30253673 82.1340651,9.40843447 81.7556316,9.68824556 C81.7047213,9.72526672 81.6512654,9.75884406 81.5961126,9.78983852 C81.1854359,10.0179922 81.0208258,9.78897756 81.1039793,9.32061683 C81.1820418,8.87291907 81.1217979,8.4355528 80.9461573,7.99129887 C80.7823957,7.57890036 80.5516022,7.22074216 80.2682013,6.89702224 C79.9567997,6.54144691 79.7056421,6.55091744 79.76928,6.85569629 C79.8337664,7.16047515 79.8473425,7.45922731 79.8354634,7.52466006 C79.8303724,7.56168122 79.8286754,7.60128525 79.8337664,7.64519407 C79.8431,7.74076032 79.8507365,7.83632657 79.8549791,7.93189282 C79.8651611,8.09030895 79.8566761,8.27885859 79.8371604,8.35117899 C79.8184933,8.4234994 79.7277032,8.53886767 79.6657623,8.63012913 C79.6038214,8.72311251 79.5384865,8.41661174 79.322966,7.9947427 C78.9979884,7.35763436 78.4235501,6.94954063 77.7362605,6.64045699 C77.4384351,6.50700862 77.1524887,6.34342675 76.8724818,6.177262 C76.3633784,5.87506602 76.0748865,5.44200453 76.1266454,4.81781054 C76.1317364,4.75151684 76.1317364,4.68522313 76.1308879,4.6094589 C76.1283424,4.49495158 75.8542751,4.63270474 75.7490604,5.03649368 C75.6438457,5.44028262 75.535237,5.73817382 75.5004482,5.70115266 C75.4809326,5.67790681 75.45972,5.65380001 75.4444469,5.62969321 C74.780067,4.60859794 73.805134,4.13248859 72.6392873,4.09891126 C71.843389,4.07566542 71.0432482,4.1626221 70.24735,4.22375006 C69.0891398,4.31328961 67.9385662,4.34944981 66.8516305,3.82168303 C66.8338119,3.81221251 66.8125992,3.80446389 66.7871441,3.79671528 C66.7506583,3.782079 66.7302942,3.99473544 66.8898133,4.18931177 C66.9856944,4.30640195 67.1180613,4.38561002 67.2657012,4.42779692 C67.7366219,4.56468912 68.2219671,4.64648006 68.7022213,4.74204631 C69.117989,4.8246982 69.5371508,4.89529669 69.955464,4.97278284 C70.4162026,5.05887857 70.8141517,5.15186195 70.8489405,5.16047152 C70.8820322,5.16822013 70.9736708,5.18457832 71.0525818,5.20438034 C71.1009466,5.21643374 71.1467659,5.22762618 71.1942822,5.24054054 C71.5812008,5.34213349 71.9341791,5.60214258 72.2820664,5.82340858 C72.5018294,5.96288365 72.591771,6.17037434 72.4110393,6.43554917 C72.3609775,6.50786958 72.3270372,6.59052147 72.294794,6.68092198 C72.2421867,6.82211896 72.1861853,6.91165851 72.1692152,6.88324693 C72.1556391,6.86258395 72.1463055,6.84622576 72.138669,6.82986758 C71.6405962,5.80274561 70.7802115,5.33180201 69.7017609,5.21815565 C68.7293734,5.11570174 67.7731076,5.28789319 66.8168418,5.43081209 C65.7562098,5.59008917 64.7108508,5.61677885 63.7180993,5.10623121 C63.6578554,5.07523675 63.5891264,5.05715665 63.5220945,5.04338134 C63.4932453,5.03735464 63.4618506,5.03821559 63.4075462,5.03993751 C63.3456053,5.04165942 63.5076699,5.36365742 63.828405,5.70976223 C64.0897447,5.99129524 64.3731456,6.23236326 64.6896382,6.43038343 C65.0892843,6.67920006 65.1376492,7.022722 64.6794561,7.12345399 C63.7164023,7.33611043 62.5531011,7.01325147 61.9896933,6.27110634 C61.6961104,5.88453654 61.485681,5.43339496 61.2133107,5.03046698 C60.8162101,4.44415511 60.1000713,4.29865334 59.5850284,4.70072036 C59.4798137,4.78337225 59.3856296,4.88066042 59.2982335,4.98914103 C59.1573816,5.16563726 59.1455025,5.30339042 59.2413836,5.27411787 C59.2965365,5.25603777 59.3550834,5.23881863 59.4127818,5.22418235 C59.8302465,5.12086749 60.0958288,5.23107001 60.3003187,5.61677885 C60.4437161,5.88970229 60.5480823,6.18501062 60.6923283,6.45879501 C60.7559662,6.58018998 60.8263921,6.69641921 60.8976666,6.8092046 C61.0173059,6.99947615 60.8314832,7.16994568 60.4802018,7.19405248 C60.2680754,7.20954971 60.0551005,7.2319346 59.8506107,7.28359203 C58.8052518,7.54532303 58.0695974,8.20137244 57.6835273,9.23279919 C57.6249805,9.38949341 57.5647366,9.56771155 57.5825552,9.7278496 C57.6164954,10.0575962 57.4459458,10.2521725 57.2261828,10.4346955 C56.7162309,10.8565645 56.1570657,11.0812744 55.4986254,10.8539816 C55.283105,10.7799393 55.061645,10.6809292 55.0268563,10.4097277 C54.989522,10.1187242 55.1634657,9.91812114 55.3925622,9.81136245 C55.5452932,9.74076395 55.7039637,9.68480173 55.8634828,9.63228334 C56.1282165,9.54618762 56.0425175,9.216441 55.5800819,9.14153773 C55.2457707,9.08729742 54.8792163,9.10279465 54.6043005,9.21558005 C54.4787216,9.26723748 54.3539913,9.33955789 54.2487766,9.42737552 C53.8661006,9.74334683 53.7770075,10.2581992 54.0935001,10.6585444 C54.2827168,10.8978905 54.5627237,11.0743867 54.8257604,11.2388295 C54.987825,11.3395615 55.1575261,11.429962 55.3263787,11.5177797 C55.6080826,11.6632814 55.8388761,11.8044784 55.8397246,11.8354729 C55.8422702,11.8664673 55.6174162,11.9585898 55.3374093,12.0412417 C55.1677082,12.0928991 54.9988556,12.1445565 54.833397,12.2074064 C53.8177358,12.5905324 52.7884985,12.9452467 51.7991409,13.3920835 C50.8920884,13.8036211 50.1971623,14.5009964 49.5981173,15.3128791 C49.3215045,15.6899784 48.9371315,15.9982011 48.563789,16.2883436 C47.2596359,17.3025513 45.7594779,17.9301891 44.1999246,18.3925231 C41.8622917,19.0881765 39.5009005,19.703761 37.159025,20.3847781 C36.0033604,20.7214124 34.8519383,21.0873192 33.7268198,21.514354 C32.3522407,22.036955 31.1872425,22.903078 30.0943673,23.9009274 C28.5195409,25.3395869 26.7351336,26.4286978 24.6325366,26.8996414 C22.8455838,27.2999865 21.1239659,27.130378 19.4651374,26.3176344 C18.5334783,25.862188 17.5441207,25.5840988 16.5055499,25.5565482 C16.2535437,25.5496605 15.9718398,25.6348953 15.7486829,25.760595 C15.3100055,26.0085507 15.2998234,26.5234031 15.7088031,26.8178505 C15.8038357,26.8858661 15.9073534,26.9418283 16.0185076,26.9848762 C16.1992393,27.0563357 16.2798474,27.0382556 16.1856632,26.9848762 C16.1296619,26.9530208 16.072812,26.9194435 16.0210532,26.8815613 C15.770744,26.7024822 15.6977725,26.3839281 15.849655,26.1721326 C16.0074771,25.9525885 16.3197271,25.8897386 16.5547632,26.0602081 C17.0833822,26.4424732 17.6069101,26.8316258 18.1533478,27.2354148 C18.5309328,27.5160868 18.4630523,27.8208657 18.0269204,27.9930571 C17.6315168,28.1497513 17.281084,28.3486324 16.9815615,28.6008929 C16.6200981,28.9048108 16.0329322,29.2087287 15.5654056,29.1760123 C15.2039422,29.1501836 14.8509639,29.1260768 14.4971371,29.1045529 C13.5128706,29.0451468 12.8077624,29.4997323 12.2740524,30.3150587 C11.697917,31.1940961 11.3203321,32.1290956 11.3288171,33.2009874 C11.3296656,33.3103289 11.3305141,33.4248362 11.3559693,33.5290121 C11.4501534,33.9207476 11.7802221,34.0860514 12.1255639,33.8966408 C12.2138085,33.8467053 12.2944165,33.7829945 12.367388,33.7063693 C12.4861788,33.5832524 12.5430286,33.4678841 12.5260585,33.4739108 C12.515028,33.4782156 12.5048459,33.4825204 12.4963608,33.489408 C12.3079926,33.6417975 12.1111393,33.8225985 11.8684667,33.6254393 C11.6385217,33.4403335 11.6325821,33.1613833 11.7191297,32.907401 C12.1365945,31.6874246 13.4025648,30.6964628 14.6787173,30.4691701 C15.1403043,30.3865182 15.5246774,30.4493681 15.5263744,30.4622824 C15.5280714,30.4734749 15.5289199,30.4838064 15.5246774,30.4863892 C14.7228396,31.0649525 14.2527675,31.8983591 13.8344542,32.766204 C13.582448,33.287944 13.3771097,33.8337909 13.0987998,34.3391728 C12.9240077,34.6560051 12.6770925,34.9418429 12.4191468,35.1975472 C12.1247154,35.4902726 11.7301603,35.5307376 11.3373022,35.4687487 C11.2354815,35.4515296 11.08869,35.3645729 11.0674774,35.28106 C11.0420222,35.181189 11.0937811,35.019329 11.1692981,34.940121 C11.232936,34.8729663 11.3076045,34.8161431 11.3865155,34.7636247 C11.5137913,34.6758071 11.610521,34.5922942 11.5994904,34.5724922 C11.5884598,34.5526902 11.3899095,34.6439517 11.157419,34.7799829 C11.01487,34.8643567 10.8782606,34.9530353 10.7620154,35.0640988 C10.5176457,35.3000011 10.7136505,35.6719346 11.0963266,35.7743885 C11.9516202,36.005986 12.7543065,35.8811472 13.5094765,35.4196741 C13.5765085,35.3783482 13.6469344,35.342188 13.7156634,35.3043059 C13.7207544,35.301723 13.728391,35.302584 13.7453611,35.3034449 C13.7623312,35.3043059 13.7631797,35.3542414 13.7479066,35.4145084 C13.7385731,35.4515296 13.730088,35.4876898 13.7207544,35.52385 C13.421232,36.6439553 13.1437706,37.7709483 12.8137019,38.8824441 C12.6236367,39.5212744 12.4013282,40.1618265 12.0992602,40.7533041 C11.2202084,42.4734967 9.56731945,43.1777597 7.73285031,42.6448272 C7.21356488,42.4924377 6.70446151,42.2918347 6.20554021,42.0791783 C5.37485321,41.7296296 4.53652966,41.6443949 3.66087187,41.8854629 C3.1823147,42.0171893 2.89297429,42.326273 2.73854626,42.7756927 C2.40084103,43.7657935 2.50860124,44.7274827 2.95830922,45.6590384 C3.08388805,45.9190475 3.20352734,46.1816394 3.33504571,46.4382047 C3.40207766,46.5707921 3.47504914,46.7068233 3.57177878,46.8161649 C3.94851527,47.2423387 4.49325588,47.1416067 4.71301883,46.6121181 C4.7987179,46.4046274 4.813991,46.1144848 4.738474,45.8570586 C4.6179862,45.4498258 4.31422119,45.4567135 4.39398072,45.6349316 C4.44064853,45.7408293 4.48561932,45.8501709 4.52295357,45.9629563 C4.55519679,46.0576616 4.55180276,46.2023024 4.50089243,46.2815105 C4.39992026,46.4382047 4.2709474,46.6491392 4.12076191,46.6792727 C4.00112262,46.7042405 3.78390518,46.5268833 3.69990313,46.3839644 C3.45807903,45.9707049 3.47589764,45.4971784 3.52341396,45.0382882 C3.54886913,44.7929154 3.61420406,44.5432378 3.70923669,44.3159451 C4.13773202,43.2810746 5.2373953,42.9582156 6.12323516,43.6271794 C6.89198125,44.2066036 7.63102964,44.8264928 8.37941159,45.4334676 C9.28137306,46.1678641 10.2376389,46.7911972 11.3933035,47.0339871 C14.3995589,47.6633468 17.3150242,45.6995034 17.9166147,42.6456881 C18.1847425,41.2767661 18.0786793,39.8889031 18.1558933,38.5096496 C18.2085006,37.5729282 18.3612316,36.6603135 18.722695,35.7907467 C19.3327706,34.3262585 20.3687959,33.2371476 21.6729491,32.3942704 C21.8231345,32.2969823 22.0225334,32.2685707 22.2041136,32.2298276 C23.3478991,31.9767062 24.4526534,31.6090775 25.4734057,31.0201827 C25.512437,30.9986588 25.5506197,30.9754129 25.5888025,30.9521671 C25.6507434,30.9125631 25.9180226,30.7971948 26.1776654,30.6818265 C26.4381566,30.5655973 26.5807055,30.8411036 26.5577959,31.315491 C26.5255527,32.0033959 26.5671294,32.6938836 26.5976756,33.3826493 C26.6358584,34.2539381 26.6850717,35.1252268 26.6757382,35.9965155 C26.6681016,36.7576017 26.5866451,37.5204098 26.281183,38.2298385 C26.1929385,38.4364682 26.0800872,38.6542904 25.9205682,38.804097 C25.4445565,39.2535167 24.9422412,39.6753857 24.4458654,40.1024205 C24.2125264,40.3021626 23.9605202,40.4812417 23.7305752,40.6861495 C22.9991633,41.3370331 22.8294622,42.1540815 23.1400153,43.0580866 C23.3080194,43.5453884 23.2011077,44.0085834 23.1578339,44.4786661 C23.0424371,45.6960596 22.4459377,46.714572 21.7985279,47.7055337 C21.4786413,48.1928355 21.1918464,48.6835811 21.1680882,49.3000265 C21.1621487,49.4549988 20.9992356,49.6469923 20.8566867,49.7460024 C20.4264943,50.0438936 19.996302,50.3650306 19.5211388,50.5639117 C18.7362711,50.8927974 18.3934749,51.4300347 18.4282636,52.2832433 C18.4486277,52.7912081 18.3968689,53.3051995 18.3476556,53.8131643 C18.2891087,54.4296097 18.3824443,55.0021462 18.6921488,55.5419664 C18.9534886,55.9956908 19.3743473,56.1205296 19.8410254,56.1635775 C20.9559618,56.2660314 21.8808329,55.8656863 22.6113963,55.0245311 C22.9287374,54.6569024 23.1977136,54.2445039 23.4675384,53.8372711 C23.9443986,53.1157889 24.4874422,52.4597395 25.1798228,51.9405823 C25.819596,51.4601682 26.2183936,50.8110064 26.5230071,50.0731661 C27.4385447,47.860506 28.6620898,45.8527538 30.4303755,44.2246837 C31.412945,43.3198176 32.4676375,42.5372075 33.8184584,42.2978614 C34.5082935,42.1738836 35.2074621,42.0929536 35.8879636,41.9353984 C37.9014674,41.4704815 39.5365378,40.3262694 40.9543906,38.8600592 C41.6136795,38.1773201 42.1898148,37.4033196 42.7532225,36.6319019 C43.5491208,35.5419301 44.5121747,34.6594489 45.6712334,33.9922071 C45.7755995,33.932801 45.9147545,33.892336 46.0318482,33.9035285 C48.4483922,34.1325431 50.8649362,34.1489013 53.2857227,34.0369768 C54.613634,33.9758489 55.9373028,33.8622025 57.2830327,33.5651723 C57.7420742,33.4653012 58.0271721,33.4584136 57.929594,33.5789476 C57.864259,33.6581557 57.8082577,33.7270322 57.7564988,33.7993526 C57.6114044,34.0016776 57.4561278,34.1996977 57.3398826,34.4183809 C57.0386631,34.9900565 57.1863031,35.4300056 57.7726204,35.6917366 C57.8583195,35.7296187 57.9448671,35.764057 58.0331117,35.7967734 C58.1790546,35.8501527 58.3657259,35.9620772 58.4590615,36.0395633 C58.5515486,36.1179104 58.6321566,36.1824822 58.6262171,36.1997014 C58.6245201,36.2091719 58.621126,36.2177815 58.617732,36.228113 C58.5150628,36.5311699 58.3886355,36.8264782 58.3131185,37.1364228 C58.1239018,37.8880385 58.3063305,38.2350043 59.0504699,38.4269977 C59.8115794,38.622435 60.5879621,38.7679368 61.3634962,38.9082728 C61.8955092,39.0038391 62.391885,38.8454229 62.8152893,38.5208421 C63.3201501,38.1368551 63.7876767,37.7003498 64.2891436,37.3129191 C64.9467354,36.8049543 65.6111153,36.2987115 66.3009504,35.8372384 C66.8024172,35.502326 67.379401,35.3688777 67.9877795,35.3447709 C69.1595658,35.2982792 70.0530422,33.9259133 69.6338804,32.8015032 C69.5634545,32.6120926 69.4709673,32.4321526 69.3682982,32.2496296 C69.2028396,31.9534603 69.4548457,31.5427838 69.644911,31.1088613 C69.8095211,30.731762 69.8095211,30.2754547 69.8239457,29.8329227 C69.8392188,29.3464819 69.7823689,28.8531534 69.7280645,28.3667126 C69.653396,27.7029145 69.3004177,27.2181956 68.7302219,26.8910319 C67.9716579,26.4571094 67.146062,26.2272338 66.3051929,26.04385 C66.2780407,26.0369623 66.251737,26.0309356 66.2135543,26.023187 C66.1626439,26.0111336 66.3883464,25.720991 66.6199885,25.3068706 C66.927996,24.7532751 67.0926061,24.1445783 67.2164879,23.5212453 C67.3242481,22.9822861 67.3938256,22.4364392 67.4829187,21.8931752 C67.535526,21.574621 67.6840145,21.31289 67.9377177,21.1105651 C68.7989509,20.4217993 69.6601841,19.7347554 70.5146292,19.038241 C71.0169446,18.6284254 71.5828978,18.6620027 72.1768517,18.7084944 C72.6579544,18.7455156 72.9192942,19.0124123 73.128875,19.3972602 C73.6269478,20.3141796 73.6057352,21.2793127 73.3842752,22.259943 C73.353729,22.3951132 73.3214858,22.5397541 73.2502113,22.6542614 C72.7529871,23.4489249 73.2951821,24.795462 74.0461096,25.1846146 C74.2132652,25.2724323 74.3609052,25.318063 74.5229698,25.3232288 C74.7995826,25.3301164 75.2085623,25.5272756 75.5776622,25.7097986 C75.7965767,25.8174182 76.0400978,25.8802681 76.292104,25.9190112 C77.5716504,26.1170313 78.6407675,25.3120363 78.785862,23.9982156 C78.9708362,22.3288195 79.3297541,20.708498 79.8431,19.1114224 C80.0306197,18.534581 80.0501353,17.8940289 80.0883181,17.2793054 C80.1426225,16.3709955 80.1477135,15.4609638 80.1723202,14.550071 C80.1816537,14.2599284 80.1926843,13.9689249 80.1850477,13.6787823 C80.1587441,12.9047818 81.0912517,12.1325031 81.8209666,12.3787369 C81.9847281,12.4338382 82.1391562,12.5216558 82.2834021,12.6137782 C82.5269232,12.7704724 82.6881393,12.4932442 82.415769,12.1049525 C82.2850991,11.9275953 82.1247316,11.7769278 81.9321208,11.6589767 Z M63.6332487,32.1850578 C63.5492467,32.2039989 63.4677901,32.2186352 63.3897276,32.2065818 C63.0163851,32.1488976 62.687165,32.2298276 62.3706724,32.423543 C62.3010949,32.4657299 62.2035168,32.5130825 62.1356363,32.4950024 C61.9345405,32.4399012 61.7325961,32.3796342 61.5306518,32.3176453 C61.1971891,32.2151913 61.2209472,31.900942 61.5832591,31.618548 C61.8038706,31.4463565 62.021088,31.2776089 62.239154,31.1105832 C62.2739427,31.0838936 62.3587933,31.0838936 62.398673,31.1080004 C62.6506792,31.2638336 62.9009884,31.4213888 63.1496005,31.578944 C63.5483981,31.8303435 63.8716788,32.0559143 63.8716788,32.080882 C63.8699818,32.1058498 63.7639186,32.1532024 63.6332487,32.1850578 Z M70.1412868,7.92586612 C69.9987378,7.93533665 69.8561889,7.94222431 69.7136399,7.94394623 C69.6491535,7.94480718 69.5702425,7.89745454 69.5193322,7.85096285 C69.3716922,7.71665352 69.2257492,7.58148323 69.0832003,7.44631295 C68.8430732,7.22246407 68.6784631,7.0408021 68.7132518,7.04166305 C68.7344645,7.04252401 68.7565256,7.04338497 68.7777383,7.04424593 C68.8388307,7.04768976 68.9016201,7.05199454 68.963561,7.0588822 C69.0000467,7.06404794 69.0984734,7.0769623 69.112898,7.07954517 C69.2987207,7.11742729 69.4845434,7.16391898 69.6618811,7.2319346 C69.6729117,7.23623939 69.6805482,7.24054417 69.6890333,7.24312705 C69.7060034,7.24915375 69.7764294,7.28187012 69.8460068,7.31803032 C69.8918261,7.34041521 69.9317059,7.36366106 69.9698886,7.3869069 C70.0097684,7.41015275 70.0504967,7.43598146 70.0895279,7.46181018 C70.1548629,7.50399708 70.2346224,7.56684696 70.2702596,7.59698046 C70.3016543,7.62280918 70.333049,7.64949886 70.3347461,7.65035981 C70.3669893,7.68135427 70.3992325,7.71148778 70.4306272,7.74248224 C70.4832345,7.79413967 70.5315994,7.85010189 70.5443269,7.86473816 C70.556206,7.88023539 70.3763228,7.91036889 70.1412868,7.92586612 Z M77.9729936,10.0860078 C77.9577205,10.1290557 77.7014718,10.0644839 77.3926158,9.93878412 C77.2059445,9.86301988 77.0218188,9.78639469 76.8393901,9.70632566 C76.7833887,9.68307982 76.7197508,9.61678611 76.7070232,9.55824102 C76.6510219,9.32750449 76.5984145,9.09504604 76.5466557,8.86344854 C76.4609566,8.47860066 76.4151373,8.16004649 76.4405925,8.15229787 C76.4668961,8.14454926 76.7774492,8.38647824 77.1448521,8.68350848 C77.3450994,8.8462294 77.5377102,9.01842084 77.6912897,9.22074579 C77.9746906,9.59870601 77.9882667,10.042099 77.9729936,10.0860078 Z" id="Shape" transform="translate(42.549155, 29.987651) rotate(-5.000000) translate(-42.549155, -29.987651) "></path>
                        </g>
                    </g>
                    <g id="dorchee" fill="#C9A560" fill-opacity="1">
                        <use filter="url(#filter-4)" xlink:href="#text-3"></use>
                        <use xlink:href="#text-3"></use>
                    </g>
                    <text id="dorchee" font-family="Avenir-Book, Avenir" font-size="40" font-weight="normal" fill="#600000">
                        <tspan x="57.14" y="58">dorchee</tspan>
                    </text>
                </g>
            </g>
        </g>
    </g>
</svg>