<?xml version="1.0" encoding="UTF-8"?>
<svg width="11px" height="11px" viewBox="0 0 11 11" version="1.1" xmlns="http://www.w3.org/2000/svg" xmlns:xlink="http://www.w3.org/1999/xlink">
    <!-- Generator: Sketch 49.2 (51160) - http://www.bohemiancoding.com/sketch -->
    <title>Empty Shopping Bag</title>
    <desc>Created with Sketch.</desc>
    <defs></defs>
    <g id="Welcome" stroke="none" stroke-width="1" fill="none" fill-rule="evenodd">
        <g id="Product-Detail-Page" transform="translate(-1251.000000, -484.000000)" fill="#000000" fill-rule="nonzero">
            <g id="Wishlist-and-Add-Icon" transform="translate(935.000000, 472.000000)">
                <g id="add-to-bag" transform="translate(289.000000, 0.000000)">
                    <g id="Empty-Shopping-Bag" transform="translate(27.000000, 12.000000)">
                        <path d="M6.72017862,1.86666572 C6.59771438,1.00832689 5.85058566,0.360972655 4.98238434,0.360972655 C4.42403451,0.360972655 3.89375948,0.630406098 3.56406201,1.08196275 C3.49671878,1.17405296 3.51686729,1.30323338 3.6089575,1.37057661 C3.70074518,1.43767783 3.83022813,1.41777133 3.89745035,1.32556011 C4.14982109,0.980252082 4.55533264,0.774047462 4.98232384,0.774047462 C5.64631724,0.774047462 6.21755486,1.26886594 6.31121823,1.92493305 C6.3259817,2.02797485 6.41438104,2.10233679 6.51548665,2.10233679 C6.52510712,2.10233679 6.53503011,2.10161072 6.54489259,2.10027959 C6.65779689,2.08412447 6.73627323,1.97950951 6.72017862,1.86666572 Z" id="Shape" transform="translate(5.123261, 1.231655) rotate(-14.000000) translate(-5.123261, -1.231655) "></path>
                        <path d="M9.90556656,2.59546755 L9.2859846,1.56281078 C9.24871287,1.50055006 9.18149065,1.46255226 9.10888339,1.46255226 L2.4040264,1.46255226 C2.290033,1.46255226 2.290033,1.87556656 2.4040264,1.87556656 L8.9919857,1.87556656 L9.36373487,2.49514851 L1.0059736,2.49514851 L1.37772277,1.87556656 L3.42978548,1.87556656 C3.54377888,1.87556656 3.54377888,1.46255226 3.42978548,1.46255226 L1.26082508,1.46255226 C1.18821782,1.46255226 1.1209956,1.50055006 1.08372387,1.56281078 L0.464141914,2.59546755 C0.425841584,2.65936194 0.424933993,2.73880638 0.461540154,2.80354785 C0.498146315,2.86828933 0.566760176,2.90834433 0.641243124,2.90834433 L9.72846535,2.90834433 C9.80294829,2.90834433 9.87150165,2.86828933 9.90816832,2.80354785 C9.94483498,2.73880638 9.94386689,2.65924092 9.90556656,2.59546755 Z" id="Shape"></path>
                        <path d="M9.93491199,2.69124862 C9.92922442,2.58149065 9.83858636,2.49533003 9.72858636,2.49533003 L0.641364136,2.49533003 C0.531364136,2.49533003 0.440726073,2.58143014 0.435038504,2.69124862 L0.0219636964,10.7458141 C0.0190594059,10.8023267 0.039510451,10.8576293 0.0784763476,10.8986524 C0.11750275,10.939615 0.17159516,10.9629098 0.228228823,10.9629098 L10.1415402,10.9629098 C10.1981133,10.9629098 10.2522662,10.9396755 10.2914741,10.8986524 C10.3303795,10.8576293 10.3508306,10.8023872 10.3479868,10.7458141 L9.93491199,2.69124862 Z M0.445566557,10.549835 L0.837464246,2.90834433 L9.53224422,2.90834433 L9.92414191,10.549835 L0.445566557,10.549835 Z" id="Shape"></path>
                        <path d="M6.73383938,3.32135864 C6.39216172,3.32135864 6.11425743,3.59926293 6.11425743,3.94094059 C6.11425743,4.28261826 6.39216172,4.56052255 6.73383938,4.56052255 C7.07551705,4.56052255 7.35342134,4.28261826 7.35342134,3.94094059 C7.35342134,3.59926293 7.07551705,3.32135864 6.73383938,3.32135864 Z M6.73383938,4.14750825 C6.61990649,4.14750825 6.52733223,4.05487349 6.52733223,3.9410011 C6.52733223,3.82712871 6.619967,3.73449395 6.73383938,3.73449395 C6.84771177,3.73449395 6.94034653,3.82712871 6.94034653,3.9410011 C6.94034653,4.05487349 6.84771177,4.14750825 6.73383938,4.14750825 Z" id="Shape"></path>
                        <path d="M3.63592959,3.32135864 C3.29425193,3.32135864 3.01634763,3.59926293 3.01634763,3.94094059 C3.01634763,4.28261826 3.29425193,4.56052255 3.63592959,4.56052255 C3.97760726,4.56052255 4.25551155,4.28261826 4.25551155,3.94094059 C4.25551155,3.59926293 3.97760726,3.32135864 3.63592959,3.32135864 Z M3.63592959,4.14750825 C3.52205721,4.14750825 3.42942244,4.05487349 3.42942244,3.9410011 C3.42942244,3.82712871 3.52205721,3.73449395 3.63592959,3.73449395 C3.74980198,3.73449395 3.84243674,3.82712871 3.84243674,3.9410011 C3.84243674,4.05487349 3.74980198,4.14750825 3.63592959,4.14750825 Z" id="Shape"></path>
                        <path d="M6.73383938,3.94094059 L6.71792629,3.94094059 C6.60393289,3.94094059 6.51141914,4.03345435 6.51141914,4.14744774 C6.51141914,4.17564356 6.5169857,4.20256876 6.52733223,4.22707371 L6.52733223,5.28332783 C6.52733223,6.02349835 5.92511551,6.62577558 5.18488449,6.62577558 C4.44465347,6.62577558 3.84243674,6.02355886 3.84243674,5.28332783 L3.84243674,4.14750825 C3.84243674,4.03351485 3.74992299,3.9410011 3.63592959,3.9410011 C3.52193619,3.9410011 3.42942244,4.03351485 3.42942244,4.14750825 L3.42942244,5.28338834 C3.42942244,6.25136414 4.21690869,7.03885039 5.18488449,7.03885039 C6.15286029,7.03885039 6.94034653,6.25136414 6.94034653,5.28338834 L6.94034653,4.14750825 C6.94034653,4.03351485 6.84783278,3.94094059 6.73383938,3.94094059 Z" id="Shape"></path>
                    </g>
                </g>
            </g>
        </g>
    </g>
</svg>