<?xml version="1.0" encoding="UTF-8"?>
<svg width="13px" height="13px" viewBox="0 0 13 13" version="1.1" xmlns="http://www.w3.org/2000/svg" xmlns:xlink="http://www.w3.org/1999/xlink">
    <!-- Generator: Sketch 49.2 (51160) - http://www.bohemiancoding.com/sketch -->
    <title>like</title>
    <desc>Created with Sketch.</desc>
    <defs></defs>
    <g id="Welcome" stroke="none" stroke-width="1" fill="none" fill-rule="evenodd">
        <g id="Product-Detail-Page" transform="translate(-974.000000, -483.000000)" fill="#FFFFFF" fill-rule="nonzero">
            <g id="Wishlist-and-Add-Icon" transform="translate(935.000000, 472.000000)">
                <g id="wishlist">
                    <g id="like" transform="translate(39.000000, 11.000000)">
                        <path d="M12.97775,3.8105 C12.788,1.722 11.30975,0.20675 9.45975,0.20675 C8.22725,0.20675 7.09875,0.87 6.46375,1.933 C5.8345,0.85625 4.75225,0.2065 3.5395,0.2065 C1.68975,0.2065 0.21125,1.72175 0.02175,3.81025 C0.00675,3.9025 -0.05475,4.388 0.13225,5.17975 C0.40175,6.32175 1.02425,7.3605 1.932,8.183 L6.46075,12.29275 L11.06725,8.18325 C11.975,7.3605 12.5975,6.322 12.867,5.17975 C13.054,4.38825 12.9925,3.90275 12.97775,3.8105 Z M12.38025,5.06525 C12.13425,6.10825 11.564,7.0585 10.73275,7.8115 L6.46375,11.62025 L2.268,7.8125 C1.43525,7.058 0.86525,6.108 0.619,5.065 C0.442,4.31575 0.51475,3.8925 0.515,3.88975 C0.68125,2.03475 1.9515,0.7065 3.5395,0.7065 C4.71125,0.7065 5.74275,1.4265 6.23225,2.58525 L6.4625,3.131 L6.69275,2.58525 C7.1745,1.44425 8.2605,0.70675 9.46,0.70675 C11.04775,0.70675 12.31825,2.035 12.484,3.8885 C12.4845,3.8925 12.55725,4.316 12.38025,5.06525 Z" id="Shape"></path>
                    </g>
                </g>
            </g>
        </g>
    </g>
</svg>